<?xml version="1.0" standalone="no"?>
<!DOCTYPE svg PUBLIC "-//W3C//DTD SVG 20010904//EN"
 "http://www.w3.org/TR/2001/REC-SVG-20010904/DTD/svg10.dtd">
<svg version="1.0" xmlns="http://www.w3.org/2000/svg"
 width="512.000000pt" height="512.000000pt" viewBox="0 0 512.000000 512.000000"
 preserveAspectRatio="xMidYMid meet">

<g transform="translate(0.000000,512.000000) scale(0.100000,-0.100000)"
fill="#ffffff" stroke="none">
<path d="M1057 4948 c-30 -24 -37 -68 -37 -238 l0 -168 -187 -4 c-203 -4 -229
-10 -295 -71 -56 -52 -71 -101 -76 -239 l-4 -126 -130 -4 c-128 -3 -130 -3
-154 -31 l-24 -28 0 -1860 0 -1859 -50 0 c-41 0 -56 -5 -75 -25 -33 -32 -33
-78 0 -110 l24 -25 2511 0 2511 0 24 25 c33 32 33 78 0 110 -20 21 -34 25 -80
25 l-55 0 0 1410 0 1410 33 0 c63 0 103 83 59 123 -22 20 -1301 677 -1318 677
-7 0 -121 54 -254 120 -132 66 -250 120 -261 120 -28 0 -69 -44 -69 -75 0 -40
15 -60 60 -80 l40 -18 -2 -356 -3 -356 -535 -121 c-294 -67 -547 -125 -562
-128 l-28 -5 0 500 c0 307 -4 507 -10 519 -16 31 -67 40 -221 40 l-149 0 0
128 c0 143 -12 183 -71 239 -63 59 -94 67 -301 71 l-188 4 0 188 0 189 -26 20
c-30 24 -72 27 -97 9z m495 -596 c21 -20 23 -34 26 -137 l4 -115 -481 0 -481
0 0 109 c0 60 3 117 6 126 16 42 48 45 486 42 l417 -2 23 -23z m398 -2222 l0
-1810 -235 0 -235 0 0 355 0 356 -25 24 -24 25 -294 0 c-275 0 -296 -1 -318
-19 l-24 -19 -3 -361 -3 -361 -239 0 -240 0 0 1803 c0 992 3 1807 7 1810 3 4
372 7 820 7 l813 0 0 -1810z m2159 1450 l691 -355 0 -1452 0 -1453 -700 0
-700 0 0 1811 c0 1125 4 1809 9 1807 6 -1 321 -163 700 -358z m-869 -1845 l0
-1415 -565 0 -565 0 0 1288 0 1287 553 127 c303 69 558 126 565 127 9 1 12
-288 12 -1414z m-1920 -1115 l0 -300 -185 0 -185 0 0 300 0 300 185 0 185 0 0
-300z"/>
<path d="M647 3630 c-36 -28 -38 -86 -4 -118 22 -20 33 -22 163 -22 134 0 142
1 162 23 27 29 28 77 3 108 -18 23 -26 24 -158 27 -129 3 -140 2 -166 -18z"/>
<path d="M1314 3638 c-47 -22 -56 -86 -19 -123 23 -24 29 -25 162 -25 106 0
144 3 160 15 44 31 37 111 -13 134 -31 14 -261 14 -290 -1z"/>
<path d="M647 3190 c-36 -28 -38 -86 -4 -118 22 -20 33 -22 163 -22 134 0 142
1 162 23 27 29 28 77 3 108 -18 23 -26 24 -158 27 -129 3 -140 2 -166 -18z"/>
<path d="M1314 3198 c-47 -22 -56 -86 -19 -123 23 -24 29 -25 162 -25 106 0
144 3 160 15 44 31 37 111 -13 134 -31 14 -261 14 -290 -1z"/>
<path d="M670 2773 c-54 -21 -69 -94 -28 -133 20 -18 35 -20 165 -20 130 0
145 2 163 20 26 26 26 80 1 111 -18 23 -26 24 -153 26 -73 1 -140 0 -148 -4z"/>
<path d="M1324 2770 c-28 -11 -54 -48 -54 -76 0 -12 9 -33 21 -48 l20 -26 149
0 149 0 20 26 c28 35 26 67 -3 101 -24 28 -26 28 -153 30 -70 2 -138 -2 -149
-7z"/>
<path d="M670 2413 c-54 -21 -69 -94 -28 -133 20 -18 35 -20 165 -20 130 0
145 2 163 20 26 26 26 80 1 111 -18 23 -26 24 -153 26 -73 1 -140 0 -148 -4z"/>
<path d="M1324 2410 c-28 -11 -54 -48 -54 -76 0 -12 9 -33 21 -48 l20 -26 149
0 149 0 20 26 c28 35 26 67 -3 101 -24 28 -26 28 -153 30 -70 2 -138 -2 -149
-7z"/>
<path d="M670 1973 c-54 -21 -69 -94 -28 -133 20 -18 35 -20 165 -20 130 0
145 2 163 20 26 26 26 80 1 111 -18 23 -26 24 -153 26 -73 1 -140 0 -148 -4z"/>
<path d="M1324 1970 c-28 -11 -54 -48 -54 -76 0 -12 9 -33 21 -48 l20 -26 149
0 149 0 20 26 c28 35 26 67 -3 101 -24 28 -26 28 -153 30 -70 2 -138 -2 -149
-7z"/>
<path d="M640 1520 c-21 -21 -26 -69 -10 -100 15 -29 65 -40 175 -40 110 0
160 11 175 40 16 31 11 79 -10 100 -18 18 -33 20 -165 20 -132 0 -147 -2 -165
-20z"/>
<path d="M1291 1514 c-28 -35 -26 -67 3 -101 l24 -28 142 0 142 0 24 28 c29
34 31 66 3 101 l-20 26 -149 0 -149 0 -20 -26z"/>
<path d="M3754 3119 c-12 -6 -27 -22 -33 -35 -8 -18 -11 -355 -11 -1190 l0
-1166 30 -30 c26 -25 36 -29 63 -24 18 3 40 16 50 27 16 20 17 92 17 1199 0
1107 -1 1179 -17 1199 -21 25 -70 35 -99 20z"/>
<path d="M4356 2779 l-26 -20 0 -1018 c0 -1109 -3 -1051 56 -1065 37 -10 80
10 93 42 8 19 11 318 9 1035 l-3 1009 -24 19 c-30 25 -72 24 -105 -2z"/>
<path d="M2400 2610 c-31 -31 -27 -93 6 -119 25 -20 39 -21 274 -21 235 0 249
1 274 21 33 26 37 88 6 119 -19 19 -33 20 -280 20 -247 0 -261 -1 -280 -20z"/>
<path d="M2400 2050 c-31 -31 -27 -93 6 -119 25 -20 39 -21 274 -21 235 0 249
1 274 21 33 26 37 88 6 119 -19 19 -33 20 -280 20 -247 0 -261 -1 -280 -20z"/>
<path d="M2406 1499 c-20 -16 -26 -29 -26 -59 0 -30 6 -43 26 -59 25 -20 39
-21 274 -21 235 0 249 1 274 21 20 16 26 29 26 59 0 30 -6 43 -26 59 -25 20
-39 21 -274 21 -235 0 -249 -1 -274 -21z"/>
<path d="M2406 939 c-20 -16 -26 -29 -26 -59 0 -30 6 -43 26 -59 25 -20 39
-21 274 -21 235 0 249 1 274 21 20 16 26 29 26 59 0 30 -6 43 -26 59 -25 20
-39 21 -274 21 -235 0 -249 -1 -274 -21z"/>
</g>
</svg>
